<?xml version="1.0" encoding="UTF-8"?>
<svg xmlns="http://www.w3.org/2000/svg" width="1800" height="5750" viewBox="0 0 1800 5750">
<defs>
  <marker id="arrow" markerWidth="12" markerHeight="8" refX="10" refY="4" orient="auto">
    <polygon points="0 0, 12 4, 0 8" fill="#222"/>
  </marker>
  <style>
    .txt { font-family: Arial, Helvetica, sans-serif; fill: #111827; }
    .title { font-family: Arial, Helvetica, sans-serif; fill: #111827; font-weight: 700; }
  </style>
</defs>
<rect width="1800" height="5750" fill="white"/>
<text x="900" y="70" text-anchor="middle" font-size="36" class="title">TON storage fee mechanism — simplified flow</text>


<rect x="110" y="130" width="520" height="440" rx="10" fill="#f0fdf4" stroke="#3f6212" stroke-width="2"/>
<text font-size="21" class="txt"><tspan x="138" y="172.0">Entry Values</tspan><tspan x="138" y="200.35"></tspan><tspan x="138" y="228.7">Contract</tspan><tspan x="138" y="257.05">• balance</tspan><tspan x="138" y="285.4">• due_payment</tspan><tspan x="138" y="313.75">• last_paid</tspan><tspan x="138" y="342.1">• state</tspan><tspan x="138" y="370.45000000000005"></tspan><tspan x="138" y="398.8">Incoming message</tspan><tspan x="138" y="427.15">• value</tspan><tspan x="138" y="455.5">• bounceable</tspan><tspan x="138" y="483.85"></tspan><tspan x="138" y="512.2">May be NULL</tspan><tspan x="138" y="540.55">(e.g. tick/tock transactions)</tspan></text>


<rect x="1170" y="130" width="520" height="175" rx="10" fill="#f0fdf4" stroke="#3f6212" stroke-width="2"/>
<text font-size="21" class="txt"><tspan x="1198" y="172.0">Key ordering rule</tspan><tspan x="1198" y="200.35"></tspan><tspan x="1198" y="228.7">Bounceable: STORAGE → CREDIT</tspan><tspan x="1198" y="257.05">Non-bounceable: CREDIT → STORAGE</tspan><tspan x="1198" y="285.4">Tick/tock: no incoming value</tspan></text>


<ellipse cx="900" cy="680" rx="75.0" ry="35.0" fill="#eef6ff" stroke="#222" stroke-width="2"/>
<text x="900" y="680" font-size="24" text-anchor="middle" dominant-baseline="middle" class="txt"><tspan x="900" y="680.0">Start</tspan></text>

<path d="M 900 715 L 900 780" fill="none" stroke="#222" stroke-width="2.2" marker-end="url(#arrow)"/>

<rect id="b1" x="640.0" y="780" width="520" height="78" rx="10" fill="#f8fafc" stroke="#222" stroke-width="2"/>
<text x="900.0" y="819.0" font-size="22" text-anchor="middle" dominant-baseline="middle" class="txt"><tspan x="900.0" y="819.0">balance = contract.balance</tspan></text>

<path d="M 900 858 L 900 920" fill="none" stroke="#222" stroke-width="2.2" marker-end="url(#arrow)"/>

<rect id="m1" x="640.0" y="920" width="520" height="78" rx="10" fill="#f8fafc" stroke="#222" stroke-width="2"/>
<text x="900.0" y="959.0" font-size="22" text-anchor="middle" dominant-baseline="middle" class="txt"><tspan x="900.0" y="959.0">msg_value = 0</tspan></text>

<path d="M 900 998 L 900 1075" fill="none" stroke="#222" stroke-width="2.2" marker-end="url(#arrow)"/>

<polygon points="900,1075.0 1110.0,1160 900,1245.0 690.0,1160" fill="#fff7ed" stroke="#222" stroke-width="2"/>
<text x="900" y="1160" font-size="21" text-anchor="middle" dominant-baseline="middle" class="txt"><tspan x="900" y="1160.0">in_msg exists?</tspan></text>

<path d="M 1110 1160 L 1290 1160 L 1290 1240" fill="none" stroke="#222" stroke-width="2.2" marker-end="url(#arrow)"/>

<rect x="1201" y="1115" width="68" height="34" rx="7" fill="white" stroke="#ddd"/>
<text x="1235" y="1132" font-size="19" text-anchor="middle" dominant-baseline="middle" class="txt" font-weight="700">Yes</text>


<rect id="m2" x="1030" y="1240" width="520" height="78" rx="10" fill="#f8fafc" stroke="#222" stroke-width="2"/>
<text x="1290.0" y="1279.0" font-size="22" text-anchor="middle" dominant-baseline="middle" class="txt"><tspan x="1290.0" y="1279.0">msg_value = in_msg.value</tspan></text>

<path d="M 1290 1318 L 1290 1400 L 900 1400 L 900 1475" fill="none" stroke="#222" stroke-width="2.2" marker-end="url(#arrow)"/>
<path d="M 900 1245 L 900 1475" fill="none" stroke="#222" stroke-width="2.2" marker-end="url(#arrow)"/>

<rect x="796" y="1328" width="68" height="34" rx="7" fill="white" stroke="#ddd"/>
<text x="830" y="1345" font-size="19" text-anchor="middle" dominant-baseline="middle" class="txt" font-weight="700">No</text>


<polygon points="900,1470.0 1170.0,1560 900,1650.0 630.0,1560" fill="#fff7ed" stroke="#222" stroke-width="2"/>
<text x="900" y="1560" font-size="21" text-anchor="middle" dominant-baseline="middle" class="txt"><tspan x="900" y="1546.875">in_msg exists</tspan><tspan x="900" y="1573.125">AND is non-bounceable?</tspan></text>

<rect x="1050" y="1695" width="560" height="170" rx="14" fill="none" stroke="#777" stroke-width="2" stroke-dasharray="10 7"/>
<text x="1105" y="1730" font-size="24" class="title">Credit Phase</text>
<path d="M 1170 1560 L 1330 1560 L 1330 1765" fill="none" stroke="#222" stroke-width="2.2" marker-end="url(#arrow)"/>

<rect x="1186" y="1515" width="68" height="34" rx="7" fill="white" stroke="#ddd"/>
<text x="1220" y="1532" font-size="19" text-anchor="middle" dominant-baseline="middle" class="txt" font-weight="700">Yes</text>


<rect id="c1" x="1095" y="1765" width="470" height="70" rx="10" fill="#f8fafc" stroke="#222" stroke-width="2"/>
<text x="1330.0" y="1800.0" font-size="22" text-anchor="middle" dominant-baseline="middle" class="txt"><tspan x="1330.0" y="1800.0">balance = balance + msg_value</tspan></text>

<path d="M 1330 1835 L 1330 1970 L 900 1970" fill="none" stroke="#222" stroke-width="2.2"/>
<path d="M 900 1650 L 900 2090" fill="none" stroke="#222" stroke-width="2.2" marker-end="url(#arrow)"/>

<rect x="796" y="1818" width="68" height="34" rx="7" fill="white" stroke="#ddd"/>
<text x="830" y="1835" font-size="19" text-anchor="middle" dominant-baseline="middle" class="txt" font-weight="700">No</text>

<rect x="225" y="1990" width="1350" height="1390" rx="16" fill="none" stroke="#777" stroke-width="2.2" stroke-dasharray="12 8"/>
<text x="285" y="2042" font-size="26" class="title">Storage Phase</text>

<rect id="e1" x="640.0" y="2090" width="520" height="78" rx="10" fill="#f8fafc" stroke="#222" stroke-width="2"/>
<text x="900.0" y="2129.0" font-size="22" text-anchor="middle" dominant-baseline="middle" class="txt"><tspan x="900.0" y="2129.0">elapsed_seconds = now - last_paid</tspan></text>

<path d="M 900 2168 L 900 2240" fill="none" stroke="#222" stroke-width="2.2" marker-end="url(#arrow)"/>

<rect id="f1" x="640.0" y="2240" width="520" height="98" rx="10" fill="#f8fafc" stroke="#222" stroke-width="2"/>
<text x="900.0" y="2289.0" font-size="21" text-anchor="middle" dominant-baseline="middle" class="txt"><tspan x="900.0" y="2275.875">calculated_storage_fee =</tspan><tspan x="900.0" y="2302.125">calculate_storage_fee(...)</tspan></text>

<path d="M 900 2338 L 900 2410" fill="none" stroke="#222" stroke-width="2.2" marker-end="url(#arrow)"/>

<rect id="f2" x="640.0" y="2410" width="520" height="105" rx="10" fill="#f8fafc" stroke="#222" stroke-width="2"/>
<text x="900.0" y="2462.5" font-size="21" text-anchor="middle" dominant-baseline="middle" class="txt"><tspan x="900.0" y="2449.375">total_storage_fee =</tspan><tspan x="900.0" y="2475.625">due_payment + calculated_storage_fee</tspan></text>

<path d="M 900 2515 L 900 2600" fill="none" stroke="#222" stroke-width="2.2" marker-end="url(#arrow)"/>

<polygon points="900,2600.0 1160.0,2685 900,2770.0 640.0,2685" fill="#fff7ed" stroke="#222" stroke-width="2"/>
<text x="900" y="2685" font-size="21" text-anchor="middle" dominant-baseline="middle" class="txt"><tspan x="900" y="2685.0">total_storage_fee &gt; balance?</tspan></text>

<path d="M 640 2685 L 500 2685 L 500 2825" fill="none" stroke="#222" stroke-width="2.2" marker-end="url(#arrow)"/>

<rect x="551" y="2638" width="68" height="34" rx="7" fill="white" stroke="#ddd"/>
<text x="585" y="2655" font-size="19" text-anchor="middle" dominant-baseline="middle" class="txt" font-weight="700">No</text>


<rect id="s1" x="250" y="2825" width="500" height="85" rx="10" fill="#f8fafc" stroke="#222" stroke-width="2"/>
<text x="500.0" y="2867.5" font-size="21" text-anchor="middle" dominant-baseline="middle" class="txt"><tspan x="500.0" y="2854.375">collected_storage_fee =</tspan><tspan x="500.0" y="2880.625">total_storage_fee</tspan></text>

<path d="M 1160 2685 L 1280 2685 L 1280 2825" fill="none" stroke="#222" stroke-width="2.2" marker-end="url(#arrow)"/>

<rect x="1181" y="2638" width="68" height="34" rx="7" fill="white" stroke="#ddd"/>
<text x="1215" y="2655" font-size="19" text-anchor="middle" dominant-baseline="middle" class="txt" font-weight="700">Yes</text>


<rect id="s2" x="1030" y="2825" width="500" height="85" rx="10" fill="#f8fafc" stroke="#222" stroke-width="2"/>
<text x="1280.0" y="2867.5" font-size="21" text-anchor="middle" dominant-baseline="middle" class="txt"><tspan x="1280.0" y="2867.5">collected_storage_fee = balance</tspan></text>

<path d="M 500 2910 L 500 2990 L 900 2990 L 900 3040" fill="none" stroke="#222" stroke-width="2.2" marker-end="url(#arrow)"/>
<path d="M 1280 2910 L 1280 2990 L 900 2990 L 900 3040" fill="none" stroke="#222" stroke-width="2.2" marker-end="url(#arrow)"/>

<rect id="b2" x="640.0" y="3040" width="520" height="90" rx="10" fill="#f8fafc" stroke="#222" stroke-width="2"/>
<text x="900.0" y="3085.0" font-size="21" text-anchor="middle" dominant-baseline="middle" class="txt"><tspan x="900.0" y="3071.875">balance = balance -</tspan><tspan x="900.0" y="3098.125">collected_storage_fee</tspan></text>

<path d="M 900 3130 L 900 3200" fill="none" stroke="#222" stroke-width="2.2" marker-end="url(#arrow)"/>

<rect id="d4p" x="640.0" y="3200" width="520" height="105" rx="10" fill="#f8fafc" stroke="#222" stroke-width="2"/>
<text x="900.0" y="3252.5" font-size="21" text-anchor="middle" dominant-baseline="middle" class="txt"><tspan x="900.0" y="3239.375">due_payment =</tspan><tspan x="900.0" y="3265.625">total_storage_fee - collected_storage_fee</tspan></text>

<path d="M 900 3305 L 900 3435" fill="none" stroke="#222" stroke-width="2.2" marker-end="url(#arrow)"/>

<polygon points="900,3430.0 1170.0,3520 900,3610.0 630.0,3520" fill="#fff7ed" stroke="#222" stroke-width="2"/>
<text x="900" y="3520" font-size="21" text-anchor="middle" dominant-baseline="middle" class="txt"><tspan x="900" y="3506.875">in_msg exists</tspan><tspan x="900" y="3533.125">AND is bounceable?</tspan></text>

<rect x="1050" y="3660" width="560" height="170" rx="14" fill="none" stroke="#777" stroke-width="2" stroke-dasharray="10 7"/>
<text x="1105" y="3695" font-size="24" class="title">Credit Phase</text>
<path d="M 1170 3520 L 1330 3520 L 1330 3730" fill="none" stroke="#222" stroke-width="2.2" marker-end="url(#arrow)"/>

<rect x="1186" y="3473" width="68" height="34" rx="7" fill="white" stroke="#ddd"/>
<text x="1220" y="3490" font-size="19" text-anchor="middle" dominant-baseline="middle" class="txt" font-weight="700">Yes</text>


<rect id="c2" x="1095" y="3730" width="470" height="70" rx="10" fill="#f8fafc" stroke="#222" stroke-width="2"/>
<text x="1330.0" y="3765.0" font-size="22" text-anchor="middle" dominant-baseline="middle" class="txt"><tspan x="1330.0" y="3765.0">balance = balance + msg_value</tspan></text>

<path d="M 1330 3800 L 1330 3900 L 900 3900 L 900 3960" fill="none" stroke="#222" stroke-width="2.2" marker-end="url(#arrow)"/>
<path d="M 900 3610 L 900 3960" fill="none" stroke="#222" stroke-width="2.2" marker-end="url(#arrow)"/>

<rect x="796" y="3758" width="68" height="34" rx="7" fill="white" stroke="#ddd"/>
<text x="830" y="3775" font-size="19" text-anchor="middle" dominant-baseline="middle" class="txt" font-weight="700">No</text>


<polygon points="900,3960.0 1115.0,4045 900,4130.0 685.0,4045" fill="#fff7ed" stroke="#222" stroke-width="2"/>
<text x="900" y="4045" font-size="21" text-anchor="middle" dominant-baseline="middle" class="txt"><tspan x="900" y="4045.0">balance &lt; msg_value?</tspan></text>

<path d="M 1115 4045 L 1280 4045 L 1280 4185" fill="none" stroke="#222" stroke-width="2.2" marker-end="url(#arrow)"/>

<rect x="1161" y="3998" width="68" height="34" rx="7" fill="white" stroke="#ddd"/>
<text x="1195" y="4015" font-size="19" text-anchor="middle" dominant-baseline="middle" class="txt" font-weight="700">Yes</text>


<rect id="m3" x="1120" y="4185" width="320" height="70" rx="10" fill="#f8fafc" stroke="#222" stroke-width="2"/>
<text x="1280.0" y="4220.0" font-size="22" text-anchor="middle" dominant-baseline="middle" class="txt"><tspan x="1280.0" y="4220.0">msg_value = balance</tspan></text>

<path d="M 1280 4255 L 1280 4340 L 900 4340 L 900 4405" fill="none" stroke="#222" stroke-width="2.2" marker-end="url(#arrow)"/>
<path d="M 900 4130 L 900 4405" fill="none" stroke="#222" stroke-width="2.2" marker-end="url(#arrow)"/>

<rect x="796" y="4248" width="68" height="34" rx="7" fill="white" stroke="#ddd"/>
<text x="830" y="4265" font-size="19" text-anchor="middle" dominant-baseline="middle" class="txt" font-weight="700">No</text>


<polygon points="900,4405.0 1210.0,4505 900,4605.0 590.0,4505" fill="#fff7ed" stroke="#222" stroke-width="2"/>
<text x="900" y="4505" font-size="20" text-anchor="middle" dominant-baseline="middle" class="txt"><tspan x="900" y="4492.5">due_payment &gt; DELETE_DUE_LIMIT</tspan><tspan x="900" y="4517.5">AND state is not ACTIVE</tspan></text>

<path d="M 1210 4505 L 1320 4505 L 1320 4660" fill="none" stroke="#222" stroke-width="2.2" marker-end="url(#arrow)"/>

<rect x="1181" y="4458" width="68" height="34" rx="7" fill="white" stroke="#ddd"/>
<text x="1215" y="4475" font-size="19" text-anchor="middle" dominant-baseline="middle" class="txt" font-weight="700">Yes</text>


<rect id="del" x="1110" y="4660" width="420" height="75" rx="10" fill="#f8fafc" stroke="#222" stroke-width="2"/>
<text x="1320.0" y="4697.5" font-size="20" text-anchor="middle" dominant-baseline="middle" class="txt"><tspan x="1320.0" y="4697.5">storage_phase.status_change = DELETED</tspan></text>

<path d="M 1320 4735 L 1320 4810 L 900 4810 L 900 4880" fill="none" stroke="#222" stroke-width="2.2" marker-end="url(#arrow)"/>
<path d="M 900 4605 L 900 4880" fill="none" stroke="#222" stroke-width="2.2" marker-end="url(#arrow)"/>

<rect x="796" y="4723" width="68" height="34" rx="7" fill="white" stroke="#ddd"/>
<text x="830" y="4740" font-size="19" text-anchor="middle" dominant-baseline="middle" class="txt" font-weight="700">No</text>


<polygon points="900,4880.0 1210.0,4980 900,5080.0 590.0,4980" fill="#fff7ed" stroke="#222" stroke-width="2"/>
<text x="900" y="4980" font-size="20" text-anchor="middle" dominant-baseline="middle" class="txt"><tspan x="900" y="4967.5">due_payment &gt; FREEZE_DUE_LIMIT</tspan><tspan x="900" y="4992.5">AND state is ACTIVE</tspan></text>

<path d="M 1210 4980 L 1320 4980 L 1320 5135" fill="none" stroke="#222" stroke-width="2.2" marker-end="url(#arrow)"/>

<rect x="1181" y="4933" width="68" height="34" rx="7" fill="white" stroke="#ddd"/>
<text x="1215" y="4950" font-size="19" text-anchor="middle" dominant-baseline="middle" class="txt" font-weight="700">Yes</text>


<rect id="frz" x="1110" y="5135" width="420" height="75" rx="10" fill="#f8fafc" stroke="#222" stroke-width="2"/>
<text x="1320.0" y="5172.5" font-size="20" text-anchor="middle" dominant-baseline="middle" class="txt"><tspan x="1320.0" y="5172.5">storage_phase.status_change = FROZEN</tspan></text>

<path d="M 1320 5210 L 1320 5280 L 900 5280 L 900 5350" fill="none" stroke="#222" stroke-width="2.2" marker-end="url(#arrow)"/>
<path d="M 900 5080 L 900 5350" fill="none" stroke="#222" stroke-width="2.2" marker-end="url(#arrow)"/>

<rect x="796" y="5198" width="68" height="34" rx="7" fill="white" stroke="#ddd"/>
<text x="830" y="5215" font-size="19" text-anchor="middle" dominant-baseline="middle" class="txt" font-weight="700">No</text>


<rect id="endbox" x="560.0" y="5350" width="680" height="205" rx="10" fill="#f8fafc" stroke="#222" stroke-width="2"/>
<text x="900.0" y="5452.5" font-size="20" text-anchor="middle" dominant-baseline="middle" class="txt"><tspan x="900.0" y="5377.5">Next phases receive</tspan><tspan x="900.0" y="5402.5"></tspan><tspan x="900.0" y="5427.5">• balance_before_compute</tspan><tspan x="900.0" y="5452.5">• msg_value_before_compute</tspan><tspan x="900.0" y="5477.5">• due_payment</tspan><tspan x="900.0" y="5502.5">• collected_storage_fee</tspan><tspan x="900.0" y="5527.5">• storage_phase.status_change</tspan></text>

<path d="M 900 5555 L 900 5615" fill="none" stroke="#222" stroke-width="2.2" marker-end="url(#arrow)"/>

<ellipse cx="900" cy="5655" rx="75.0" ry="35.0" fill="#eef6ff" stroke="#222" stroke-width="2"/>
<text x="900" y="5655" font-size="24" text-anchor="middle" dominant-baseline="middle" class="txt"><tspan x="900" y="5655.0">End</tspan></text>

</svg>